<svg width="19" height="19" viewBox="0 0 19 19" fill="none" xmlns="http://www.w3.org/2000/svg">
<path d="M3.875 5.71631V18.396H0.488281V5.71631H3.875ZM0.277344 2.41162C0.277344 1.91943 0.449219 1.51318 0.792969 1.19287C1.13672 0.872559 1.59766 0.712402 2.17578 0.712402C2.74609 0.712402 3.20312 0.872559 3.54688 1.19287C3.89844 1.51318 4.07422 1.91943 4.07422 2.41162C4.07422 2.90381 3.89844 3.31006 3.54688 3.63037C3.20312 3.95068 2.74609 4.11084 2.17578 4.11084C1.59766 4.11084 1.13672 3.95068 0.792969 3.63037C0.449219 3.31006 0.277344 2.90381 0.277344 2.41162ZM10.4488 8.42334V18.396H7.07375V5.71631H10.2378L10.4488 8.42334ZM9.95656 11.6108H9.0425C9.0425 10.6733 9.16359 9.82959 9.40578 9.07959C9.64797 8.32178 9.98781 7.67725 10.4253 7.146C10.8628 6.60693 11.3823 6.19678 11.9839 5.91553C12.5933 5.62646 13.273 5.48193 14.023 5.48193C14.6167 5.48193 15.1597 5.56787 15.6519 5.73975C16.1441 5.91162 16.5659 6.18506 16.9175 6.56006C17.2769 6.93506 17.5503 7.43115 17.7378 8.04834C17.9331 8.66553 18.0308 9.41943 18.0308 10.3101V18.396H14.6323V10.2983C14.6323 9.73584 14.5542 9.29834 14.398 8.98584C14.2417 8.67334 14.0113 8.45459 13.7066 8.32959C13.4097 8.19678 13.0425 8.13037 12.605 8.13037C12.1519 8.13037 11.7573 8.22021 11.4214 8.3999C11.0933 8.57959 10.8198 8.82959 10.6011 9.1499C10.3902 9.4624 10.23 9.82959 10.1206 10.2515C10.0113 10.6733 9.95656 11.1265 9.95656 11.6108Z" fill="black"/>
</svg>
